<svg width="662" height="699" viewBox="0 0 662 699" fill="none" xmlns="http://www.w3.org/2000/svg">
<path d="M308.385 1.24156C314.926 0.904728 320.214 1.08852 326.761 1.32333C316.591 6.5611 287.12 26.4852 281.636 35.2076C269.549 54.4318 291.192 73.1069 311.956 67.4955C328.156 63.1182 339.999 54.197 354.991 50.6044C364.689 53.9067 382.156 71.9703 390.646 79.2239C403.291 90.025 417.279 101.817 428.911 113.555C439.576 124.311 428.851 138.03 415.629 133.036C405.114 130.073 375.676 97.3918 369.099 96.1908C363.204 105.278 408.189 128.569 409.749 143.235C410.019 145.768 409.216 147.834 407.641 149.783C405.444 152.499 402.571 154.289 399.031 154.496C385.501 155.285 361.486 127.867 351.226 118.923C348.714 118.769 349.839 118.446 347.776 120.038C347.544 127.932 377.259 146.91 381.249 154.965C387.826 169.502 367.426 171.488 360.916 162.517C351.256 149.22 354.789 143.765 337.794 137.246C330.346 123.97 327.556 121.688 312.324 121.746C303.45 106.41 296.091 102.331 279.066 108.863C273.854 105.846 270.016 103.464 263.975 102.943C246.663 101.451 242.362 116.681 233.049 124.389L232.581 124.771C226.341 129.933 212.928 135.707 205.384 139.881C135.487 178.55 91.94 249.545 92.939 329.777C93.7137 392.016 109.523 447.002 154.019 492.082C157.734 484.272 162.147 476.396 166.275 468.764C172.65 456.749 189.297 430.149 193.464 419.401C190.776 415.149 188.755 410.51 187.469 405.645C180.528 379.437 200.867 363.392 224.043 357.886C220.723 366.273 210.102 380.119 212.442 387.842C217.203 403.548 240.186 415.746 247.46 393.512C249.255 388.026 255.405 377.164 257.983 372.825C259.741 375.638 261.173 378.641 262.251 381.778C270.371 405.325 257.981 429.261 233.519 434.739C220.316 437.696 213.66 457.303 207.972 468.67L183.585 517.613C189.963 528.759 199.071 533.622 209.979 539.402C92.399 511.432 -0.558989 380.583 17.582 260.481C24.0763 217.488 46.397 173.163 73.8575 139.917C105.316 101.284 145.358 70.5315 190.794 50.1062C202.593 44.8122 223.774 38.1378 233.284 33.1904C261.819 18.345 274.488 4.50111 308.385 1.24156Z" fill="#89C665"/>
<path d="M479.086 150.162C490.261 152.544 509.469 161.891 519.354 167.737C578.514 203.348 621.309 260.806 638.476 327.704C654.984 392.024 647.229 465.643 612.496 522.565C575.379 583.387 512.926 631.313 443.941 648.95C440.124 631.868 422.896 619.625 410.199 608.204C400.051 599.122 390.001 589.933 380.049 580.638C351.586 553.067 349.216 573.481 316.936 582.922C306.242 586.052 285.559 582.627 292.411 568.078C294.798 563.011 317.686 552.959 322.951 549.526C351.421 534.689 372.886 520.882 404.746 536.91C416.836 542.994 434.206 555.419 448.051 550.988C488.274 538.117 526.876 500.64 549.241 465.74C581.866 414.935 592.891 353.212 579.856 294.251C566.274 232.753 531.841 183.96 479.086 150.162Z" fill="#31B5DA"/>
<path d="M0.832276 315.364C3.41828 314.715 0.831507 311.524 4.16901 308.593C9.48876 383.635 39.293 443.309 96.5398 493.559C130.772 523.606 190.674 557.129 238.576 556.381C245.788 556.268 256.078 551.829 262.474 548.369C287.199 534.993 299.556 530.192 328.276 532.61C316.764 540.483 282.816 555.949 280.3 569.842C279.387 574.889 280.989 580.54 283.984 584.636C288.306 590.546 296.05 594.595 303.205 595.644C324.084 598.705 344.439 577.207 359.064 578.445C365.116 578.958 425.446 634.411 430.846 641.35C432.766 643.811 433.479 646.016 433.089 649.175C432.661 652.656 430.629 655.806 427.809 657.854C424.936 659.94 421.599 660.412 418.171 659.767C403.411 657.014 374.844 622.011 365.124 620.113L364.644 621.02L365.634 620.188L364.974 622.468L364.816 622.198C370.659 636.084 400.149 651.058 407.101 663.766C408.586 666.474 408.789 670.472 407.679 673.338C406.666 675.934 404.529 677.892 401.941 678.859C397.771 680.427 393.166 679.722 389.244 677.817C377.919 672.31 353.656 640.578 344.379 639.01L343.299 640.443C344.964 650.983 379.239 670.63 380.431 682.843C381.316 691.958 365.221 695.761 358.194 688.499C342.729 672.498 352.336 666.564 330.181 655.071C324.031 645.244 321.766 640.713 309.42 640.022C299.956 626.729 294.986 622.678 278.491 627.037C244.364 601.001 237.223 641.23 228.958 643.886C218.689 642.108 196.608 632.071 187.157 627.134C135.04 599.927 94.9318 565.308 61.0753 517.32C28.6123 471.177 8.27376 417.607 1.93251 361.541C0.396511 348.557 -0.913724 328.289 0.832276 315.364Z" fill="#70BB6F"/>
<path d="M442.996 124.15C441.189 114.476 437.386 105.808 428.266 98.9139C408.136 83.7084 378.676 50.7521 357.391 39.7402C350.011 35.9203 309.254 64.2532 296.298 57.1632C290.685 54.0912 288.813 54.5773 288.131 46.4221C287.912 37.6149 305.05 28.3367 310.966 24.6533C328.816 13.54 347.446 0.85821 368.986 0C395.476 1.49812 416.116 20.2107 437.604 33.0216C448.029 39.2383 464.889 45.212 476.431 50.9907C510.901 68.3342 542.236 91.3175 569.131 118.993C618.736 169.655 647.836 236.771 658.171 306.638C661.044 326.049 661.591 350.104 661.411 369.722C660.759 372.951 660.549 374.278 660.384 377.581L659.266 373.53C659.169 365.364 657.031 354.52 655.816 346.323C639.676 237.38 551.259 146.214 442.996 124.15Z" fill="#57CBC2"/>
<path d="M458.109 254.222C470.244 255.287 529.719 295.622 543.436 303.772C568.831 318.859 560.094 366.744 527.956 368.258C517.674 368.742 514.659 365.197 504.429 369.921C497.634 378.47 484.441 418.903 481.576 430.021C484.771 432.394 489.691 435.548 491.214 439.126C490.539 447.081 484.216 465.343 475.809 468.726C472.749 469.958 468.249 467.654 465.451 466.295C463.464 465.294 455.274 460.728 453.676 459.534C445.771 453.621 403.134 432.823 401.499 425.306C402.429 419.441 413.769 406.533 417.789 400.477C425.686 388.554 433.959 404.007 441.361 403.283C445.921 399.713 454.794 375.939 457.621 369.087C454.149 364.958 450.241 363.342 446.641 360.106C438.279 351.621 456.429 340.659 455.896 332.066C454.066 321.959 424.974 313.029 425.536 302.59C425.919 295.481 438.241 280.819 442.599 274.193C446.094 268.89 453.414 259.058 458.109 254.222ZM530.911 348.309C532.426 346.222 533.004 345.837 532.974 343.423C531.159 338.349 511.711 328.755 506.416 326.859C504.961 328.77 503.701 329.909 503.611 332.222C506.619 336.883 525.144 347.627 530.911 348.309ZM537.751 332.331C539.551 329.301 539.671 330.113 539.514 327.041C536.626 322.175 520.111 314.039 514.966 312.512C513.189 315.38 513.391 314.262 513.376 317.141C515.739 322.586 532.051 330.587 537.751 332.331Z" fill="#31B5DA"/>
<path d="M236.36 212.703C257.172 210.366 275.451 215.7 289.921 231.245C271.065 229.983 239.727 230.542 230.211 252.133C227.326 258.68 229.886 264.914 232.741 271.086C229.259 283.18 235.032 275.16 239.649 279.596C256.106 295.403 271.435 312.614 288.051 328.262C292.089 332.066 302.113 334.621 306.359 338.909C318.984 351.158 330.211 361.768 342.564 374.599C349.464 381.767 375.054 403.258 376.681 412.406C378.241 421.169 361.794 437.391 351.781 436.802C338.986 436.049 324.976 418.068 316.036 408.992C307.227 400.17 298.485 391.282 289.809 382.327C286.016 378.431 280.02 372.523 276.572 368.551C272.224 362.676 271.316 356.365 266.049 350.935C249.544 333.918 232.801 317.039 216.45 299.887C213.627 296.927 215.241 294.461 214.328 290.763C212.514 291.266 209.939 294.839 208.544 296.484L199.087 294.191C185.522 297.652 180.558 303.25 181.706 317.543C178.803 320.152 166.774 333.147 163.671 331.411C154.044 326.03 133.262 304.675 127.875 296.049C132.093 290.119 143.454 279.717 149.418 275.553C170.338 284.285 162.081 266.043 169.004 258.062C186.561 237.825 209.927 217.131 236.36 212.703Z" fill="#89C665"/>
<path d="M293.299 148.56C287.441 155.875 275.521 161.241 268.368 151.457C265.266 147.214 266.582 143.214 267.543 138.346C263.152 141.398 254.718 144.024 250.392 140.448C229.474 123.158 272.928 95.5216 276.954 123.551C282.951 118.616 296.371 109.94 301.34 121.422C304.512 128.751 301.359 135.569 298.467 142.382C315.376 123.503 336.841 128.32 326.229 153.76L325.996 154.303C332.379 150.677 341.116 148.574 344.589 156.781C353.754 178.415 311.06 195.097 317.026 165.116C314.544 165.541 306.645 175.651 296.229 168.457C292.33 165.764 291.822 163.085 290.677 158.556C291.426 155.367 292.204 151.571 293.299 148.56Z" fill="#57CBC2"/>
<path d="M272.946 645.364C280.534 635.949 295.989 627.802 299.701 646.819C300.076 648.74 298.156 654.659 297.526 656.782C314.199 641.328 328.929 653.713 317.161 673.766C322.509 669.37 332.079 663.848 337.501 671.433C345.181 682.19 329.919 701.568 317.739 697.832C309.379 695.266 307.521 688.094 311.039 680.885L310.63 680.555C306.365 683.653 302.616 687.239 296.922 686.256C289.353 684.936 287.606 677.127 288.93 670.54C289.185 669.287 289.465 668.034 289.771 666.789C272.271 679.932 259.243 671.283 268.942 650.855C270.313 647.494 271.327 648.245 272.946 645.364Z" fill="#31B5DA"/>
<path d="M422.251 240.215C428.986 240.388 444.421 246.991 450.714 250.055C441.504 262.314 432.736 274.902 424.434 287.794L422.281 290.54C414.991 291.955 401.454 275.663 398.431 269.546C402.894 263.331 417.024 243.226 422.251 240.215Z" fill="#31B5DA"/>
<path d="M352.351 215.652C366.301 215.303 379.674 228.834 389.566 236.359C398.956 233.615 402.939 236.876 410.379 242.147C408.834 244.881 406.231 248.388 404.371 251.048C401.791 254.762 400.276 256.818 397.269 260.169C386.986 252.58 389.724 250.311 382.441 243.177C376.396 237.257 356.034 224.035 351.909 217.33L352.351 215.652Z" fill="#31B5DA"/>
<path d="M268.941 650.855C263.009 656.917 252.341 661.463 245.877 654.111C228.148 633.954 278.238 611.088 272.946 645.364C271.327 648.245 270.313 647.494 268.941 650.855Z" fill="#31B5DA"/>
<path d="M0.832249 315.364C0.0897488 308.395 2.33973 294.305 3.87798 287.34C3.91998 294.424 4.01748 301.51 4.16898 308.593C0.83148 311.524 3.41825 314.715 0.832249 315.364Z" fill="#89C665"/>
<path d="M659.266 373.53L660.384 377.581C660.549 374.278 660.759 372.951 661.411 369.722C661.434 373.249 661.854 385.311 659.934 387.698C659.836 387.417 659.739 387.136 659.641 386.854L660.421 386.676L660.564 385.837L659.424 385.362C659.289 381.419 659.236 377.475 659.266 373.53Z" fill="#0E7294" fill-opacity="0.803922"/>
</svg>
